<mxfile host="65bd71144e">
    <diagram id="r0cd0Serq-IUzEln1YZQ" name="Page-1">
        <mxGraphModel dx="984" dy="561" grid="0" gridSize="10" guides="1" tooltips="1" connect="1" arrows="1" fold="1" page="1" pageScale="1" pageWidth="2336" pageHeight="1654" math="0" shadow="0">
            <root>
                <mxCell id="0"/>
                <mxCell id="1" parent="0"/>
                <mxCell id="2" value="order" style="swimlane;childLayout=stackLayout;resizeParent=1;resizeParentMax=0;horizontal=0;startSize=20;horizontalStack=0;fillColor=#60a917;strokeColor=#2D7600;fontColor=#ffffff;fontSize=13;" parent="1" vertex="1">
                    <mxGeometry x="83" y="80" width="2170" height="780" as="geometry"/>
                </mxCell>
                <mxCell id="3" value="Customer" style="swimlane;startSize=20;horizontal=0;" parent="2" vertex="1">
                    <mxGeometry x="20" width="2150" height="270" as="geometry"/>
                </mxCell>
                <mxCell id="9" value="Postex" style="swimlane;startSize=20;horizontal=0;fillColor=#60a917;strokeColor=#2D7600;fontColor=#ffffff;" parent="2" vertex="1">
                    <mxGeometry x="20" y="270" width="2150" height="510" as="geometry"/>
                </mxCell>
                <mxCell id="4" value="&lt;font style=&quot;font-size: 24px&quot;&gt;شروع&lt;/font&gt;" style="ellipse;whiteSpace=wrap;html=1;aspect=fixed;fillColor=#0050ef;strokeColor=#001DBC;fontColor=#ffffff;" parent="9" vertex="1">
                    <mxGeometry x="77" y="76.25" width="110" height="110" as="geometry"/>
                </mxCell>
                <mxCell id="31" value="" style="edgeStyle=orthogonalEdgeStyle;html=1;" parent="9" source="6" target="30" edge="1">
                    <mxGeometry relative="1" as="geometry"/>
                </mxCell>
                <mxCell id="6" value="&lt;span style=&quot;font-size: 24px&quot;&gt;بررسی وضعیت سفارش&lt;/span&gt;" style="whiteSpace=wrap;html=1;fontColor=#ffffff;strokeColor=#2D7600;fillColor=#60a917;" parent="9" vertex="1">
                    <mxGeometry x="337" y="76.25" width="213" height="110" as="geometry"/>
                </mxCell>
                <mxCell id="7" value="" style="edgeStyle=none;html=1;" parent="9" source="4" target="6" edge="1">
                    <mxGeometry relative="1" as="geometry"/>
                </mxCell>
                <mxCell id="33" value="" style="edgeStyle=orthogonalEdgeStyle;html=1;" parent="9" source="30" target="32" edge="1">
                    <mxGeometry relative="1" as="geometry"/>
                </mxCell>
                <mxCell id="40" value="" style="edgeStyle=orthogonalEdgeStyle;html=1;" parent="9" source="30" target="39" edge="1">
                    <mxGeometry relative="1" as="geometry"/>
                </mxCell>
                <mxCell id="30" value="&lt;font style=&quot;font-size: 20px&quot;&gt;کد رهگری دارد&amp;nbsp;&lt;/font&gt;" style="rhombus;whiteSpace=wrap;html=1;fontColor=#ffffff;strokeColor=#6F0000;fillColor=#a20025;" parent="9" vertex="1">
                    <mxGeometry x="707" y="61.879999999999995" width="153.5" height="138.75" as="geometry"/>
                </mxCell>
                <mxCell id="38" value="" style="edgeStyle=orthogonalEdgeStyle;html=1;" parent="9" source="32" target="37" edge="1">
                    <mxGeometry relative="1" as="geometry"/>
                </mxCell>
                <mxCell id="32" value="&lt;font style=&quot;font-size: 18px&quot;&gt;کسر مبلغ بارکد از کیف بلوک شده&amp;nbsp;&lt;/font&gt;" style="whiteSpace=wrap;html=1;fontColor=#ffffff;strokeColor=#2D7600;fillColor=#60a917;" parent="9" vertex="1">
                    <mxGeometry x="957.25" y="77.51" width="172.75" height="108.74" as="geometry"/>
                </mxCell>
                <mxCell id="37" value="&lt;font style=&quot;font-size: 33px&quot;&gt;پایان&amp;nbsp;&lt;/font&gt;" style="ellipse;whiteSpace=wrap;html=1;fontColor=#ffffff;strokeColor=#001DBC;fillColor=#0050ef;" parent="9" vertex="1">
                    <mxGeometry x="1847" y="72.82" width="120" height="118.12" as="geometry"/>
                </mxCell>
                <mxCell id="41" style="edgeStyle=orthogonalEdgeStyle;html=1;exitX=1;exitY=0.5;exitDx=0;exitDy=0;" parent="9" source="39" target="37" edge="1">
                    <mxGeometry relative="1" as="geometry"/>
                </mxCell>
                <mxCell id="39" value="کسنل کردن سفارش" style="whiteSpace=wrap;html=1;fontColor=#ffffff;strokeColor=#2D7600;fillColor=#60a917;" parent="9" vertex="1">
                    <mxGeometry x="723.75" y="320.005" width="120" height="60" as="geometry"/>
                </mxCell>
            </root>
        </mxGraphModel>
    </diagram>
</mxfile>